<svg xmlns="http://www.w3.org/2000/svg" version="1.1" xmlns:xlink="http://www.w3.org/1999/xlink" width="128" height="128" x="0" y="0" viewBox="0 0 512 512" style="enable-background:new 0 0 512 512" xml:space="preserve" class=""><path width="512" height="512" rx="102.4" ry="102.4" fill="#a40fa426" shape="rounded" d="M102.4 0H409.6A102.4 102.4 0 0 1 512 102.4V409.6A102.4 102.4 0 0 1 409.6 512H102.4A102.4 102.4 0 0 1 0 409.6V102.4A102.4 102.4 0 0 1 102.4 0z"/><g transform="matrix(.7 0 0 .7 76.8 76.8)"><path d="M36.683 388.167V324.52c0 -3.877 3.118 -7.02 6.963 -7.02h80.222a6.95 6.95 0 0 1 5.724 3.023l17.436 25.381a6.95 6.95 0 0 0 5.724 3.023h40.967c3.846 0 6.963 3.143 6.963 7.02v84.532c0 3.877 -3.118 7.02 -6.963 7.02H43.646c-3.846 0 -6.963 -3.143 -6.963 -7.02v-16.313" style="stroke-width:15;stroke-linecap:round;stroke-linejoin:round;stroke-miterlimit:10;" fill="none" stroke="#a40fa4" stroke-width="15" stroke-linecap="round" stroke-linejoin="round" stroke-miterlimit="10" data-original="#000000" opacity="1" class=""/><path d="M163.982 447.5H74.328v-54.037a7.575 7.575 0 0 1 7.575 -7.575h74.505a7.575 7.575 0 0 1 7.575 7.575V447.5zM477.5 355.947v84.532c0 3.877 -3.118 7.02 -6.963 7.02H320.463c-3.846 0 -6.963 -3.143 -6.963 -7.02V324.52c0 -3.877 3.118 -7.02 6.963 -7.02h80.222a6.95 6.95 0 0 1 5.724 3.023l17.436 25.381a6.95 6.95 0 0 0 5.724 3.023h40.967c3.846 0 6.964 3.143 6.964 7.02" style="stroke-width:15;stroke-linecap:round;stroke-linejoin:round;stroke-miterlimit:10;" fill="none" stroke="#a40fa4" stroke-width="15" stroke-linecap="round" stroke-linejoin="round" stroke-miterlimit="10" data-original="#000000" opacity="1" class=""/><path d="M440.8 447.5h-89.654v-54.037a7.575 7.575 0 0 1 7.575 -7.575h74.505a7.575 7.575 0 0 1 7.575 7.575zM225.5 82.678V220.36c0 10.039 -8.138 18.178 -18.178 18.178H140.58c-1.502 0 -2.9 0.766 -3.709 2.032l-18.443 28.874c-0.9 1.41 -2.959 1.41 -3.859 0L96.126 240.57a4.4 4.4 0 0 0 -3.709 -2.032H25.678C15.639 238.538 7.5 230.4 7.5 220.36V82.678c0 -10.04 8.138 -18.178 18.178 -18.178h181.645c10.039 0 18.177 8.138 18.177 18.178M469.333 64.5h16.989c10.039 0 18.178 8.138 18.178 18.178V220.36c0 10.039 -8.138 18.178 -18.178 18.178H419.58c-1.502 0 -2.9 0.766 -3.709 2.032l-18.443 28.874c-0.9 1.41 -2.959 1.41 -3.859 0l-18.443 -28.874a4.4 4.4 0 0 0 -3.709 -2.032h-66.742c-10.039 0 -18.178 -8.138 -18.178 -18.178V82.678c0 -10.039 8.138 -18.178 18.178 -18.178H434" style="stroke-width:15;stroke-linecap:round;stroke-linejoin:round;stroke-miterlimit:10;" fill="none" stroke="#a40fa4" stroke-width="15" stroke-linecap="round" stroke-linejoin="round" stroke-miterlimit="10" data-original="#000000" opacity="1" class=""/><path d="m65.679 118.187 22.767 66.252 23.25 -66.33m27.539 1.273h13.905v65.057m190.425 -66.252 22.768 66.252 23.249 -66.33m56.853 66.18s-31.653 0.398 -33.152 -0.102 2.404 -3.14 23.156 -32.791c3.876 -5.538 6.009 -10.209 6.917 -14.123l0.322 -2.517c0 -9.194 -7.453 -16.647 -16.647 -16.647 -8.09 0 -14.832 5.771 -16.334 13.42M101.5 410.805v11.778m277.167 -11.778v11.778" style="stroke-width:15;stroke-linecap:round;stroke-linejoin:round;stroke-miterlimit:10;" fill="none" stroke="#a40fa4" stroke-width="15" stroke-linecap="round" stroke-linejoin="round" stroke-miterlimit="10" data-original="#000000" opacity="1" class=""/></g></svg>