<svg xmlns="http://www.w3.org/2000/svg" version="1.1" xmlns:xlink="http://www.w3.org/1999/xlink" width="128" height="128" x="0" y="0" viewBox="0 0 512 512" style="enable-background:new 0 0 512 512" xml:space="preserve" class=""><rect width="512" height="512" rx="102.4" ry="102.4" fill="#150fb026" shape="rounded"></rect><g transform="matrix(0.7,0,0,0.7,76.80000000000001,76.81500205993655)"><path d="M483 239.3h-8.5V80.8c0-18.9-15.4-34.3-34.3-34.3H139.6c-18.9 0-34.3 15.4-34.3 34.3v112.8H38.9C17.5 193.6.1 210.9 0 232.4v194.3c0 21.5 17.4 38.9 38.9 38.9h113.7c21.5 0 38.9-17.4 38.9-38.9v-92h56.1v35.9H224c-4.3.2-7.5 3.9-7.3 8.2.2 3.9 3.4 7.1 7.3 7.3h131.9c4.3 0 7.7-3.5 7.7-7.8s-3.5-7.7-7.7-7.7h-23.5v-35.8h58.1v59c0 16 13 29 29.1 29.1H483c16 0 29-13 29-29.1V268.4c0-16.1-13-29-29-29.1zM120.9 80.8c0-10.3 8.4-18.7 18.7-18.7h300.6c10.4 0 18.7 8.4 18.8 18.7v158.5h-39.5c-16.2.1-29.3 13.4-29.2 29.6 0 .7 0 1.5.1 2.2h-199v-38.9c0-21.5-17.4-38.9-38.9-38.9h-31.6zm54.8 345.9c0 12.8-10.4 23.2-23.3 23.2H38.9c-12.9 0-23.3-10.4-23.3-23.2V232.3c0-12.9 10.5-23.3 23.3-23.2h113.7c12.8 0 23.2 10.4 23.3 23.3zm141.1-56.2H263v-35.9h53.9zm7.8-51.3H191.4v-32.5h199.1v32.5zm171.8 74.5c0 7.5-6.1 13.5-13.5 13.6h-63.4c-7.5 0-13.5-6.1-13.5-13.6V268.4c0-7.5 6.1-13.5 13.5-13.5H483c7.5 0 13.5 6 13.5 13.5z" fill="#150fb0" opacity="1" data-original="#000000" class=""></path></g></svg>