<svg xmlns="http://www.w3.org/2000/svg" version="1.1" xmlns:xlink="http://www.w3.org/1999/xlink" width="128" height="128" x="0" y="0" viewBox="0 0 512 512" style="enable-background:new 0 0 512 512" xml:space="preserve" class=""><rect width="512" height="512" rx="102.4" ry="102.4" fill="#dba24026" shape="rounded"></rect><g transform="matrix(0.7,0,0,0.7,76.80014877319337,76.80014927387239)"><path d="M493.229 150.654 344.949 2.346a7.993 7.993 0 0 0-5.653-2.343H171.343c-39.091 0-70.894 31.804-70.894 70.895v140.314H38.228c-12.02 0-21.798 9.779-21.798 21.799v125.32c0 12.02 9.779 21.799 21.798 21.799h62.221v60.973c0 39.091 31.803 70.895 70.894 70.895h253.333c39.091 0 70.895-31.804 70.895-70.895V156.306a7.998 7.998 0 0 0-2.342-5.652zM347.29 27.298l120.99 121.013H355.283c-4.408 0-7.994-3.599-7.994-8.021V27.298zM32.417 358.331v-125.32c0-3.15 2.661-5.811 5.811-5.811h341.603a5.817 5.817 0 0 1 5.811 5.811v125.32a5.818 5.818 0 0 1-5.811 5.811H38.228c-3.15 0-5.811-2.661-5.811-5.811zm392.259 137.678H171.343c-30.276 0-54.907-24.631-54.907-54.906V380.13h263.395c12.02 0 21.798-9.779 21.798-21.799v-125.32c0-12.02-9.779-21.799-21.798-21.799H116.436V70.897c0-30.275 24.631-54.906 54.907-54.906h159.959V140.29c0 13.239 10.758 24.01 23.981 24.01h124.299v276.803c.001 30.275-24.631 54.906-54.906 54.906zM245.311 252.25c.014.21.02.42.017.63v85.693a7.994 7.994 0 1 1-15.988 0v-60.43l-15.475 22.124a7.995 7.995 0 0 1-6.55 3.412h-.002a7.992 7.992 0 0 1-6.55-3.415l-15.444-22.102v60.41a7.994 7.994 0 1 1-15.988 0V252.88a7.943 7.943 0 0 1 .904-3.809 7.965 7.965 0 0 1 2.099-2.548 7.982 7.982 0 0 1 8.677-.849 7.943 7.943 0 0 1 2.93 2.608l23.377 33.453 23.401-33.456a7.934 7.934 0 0 1 2.919-2.6 7.932 7.932 0 0 1 3.167-.887 8.072 8.072 0 0 1 2.962.36 7.95 7.95 0 0 1 2.564 1.377 7.954 7.954 0 0 1 2.092 2.544c.503.96.815 2.036.888 3.177zm87.749 86.323a7.994 7.994 0 0 1-7.994 7.994h-51.534a7.994 7.994 0 0 1-7.994-7.994v-85.805a7.994 7.994 0 1 1 15.988 0v77.811h43.54a7.994 7.994 0 0 1 7.994 7.994zm-181.68-81.688-23.295 38.786 23.295 38.786a7.994 7.994 0 0 1-2.737 10.969 7.988 7.988 0 0 1-10.968-2.736l-18.915-31.493-18.915 31.493a7.99 7.99 0 0 1-10.968 2.736 7.994 7.994 0 0 1-2.737-10.969l23.295-38.786-23.295-38.786a7.994 7.994 0 0 1 13.705-8.233l18.915 31.493 18.915-31.493c2.273-3.784 7.183-5.013 10.968-2.736a7.993 7.993 0 0 1 2.737 10.969z" fill="#dba240" opacity="1" data-original="#000000" class=""></path></g></svg>