<svg xmlns="http://www.w3.org/2000/svg" version="1.1" xmlns:xlink="http://www.w3.org/1999/xlink" width="128" height="128" x="0" y="0" viewBox="0 0 512 512" style="enable-background:new 0 0 512 512" xml:space="preserve" class=""><rect width="512" height="512" rx="102.4" ry="102.4" fill="#ff9f4326" shape="rounded"></rect><g transform="matrix(0.7,0,0,0.7,76.80000000000001,76.79999771118165)"><path d="M469.333 21.333H42.667C19.136 21.333 0 40.469 0 64v384c0 23.531 19.136 42.667 42.667 42.667h426.667c23.53 0 42.666-19.136 42.666-42.667V64c0-23.531-19.136-42.667-42.667-42.667zM490.667 448c0 11.765-9.568 21.333-21.333 21.333H42.667c-11.765 0-21.333-9.568-21.333-21.333V64c0-11.765 9.568-21.333 21.333-21.333h426.667c11.765 0 21.333 9.568 21.333 21.333v384z" fill="#ff9f43" opacity="1" data-original="#000000" class=""></path><path d="M74.667 64H64c-5.888 0-10.667 4.768-10.667 10.667S58.112 85.334 64 85.334h10.667c5.888 0 10.667-4.768 10.667-10.667C85.333 68.768 80.555 64 74.667 64zM128 64h-10.667c-5.888 0-10.667 4.768-10.667 10.667s4.779 10.667 10.667 10.667H128c5.888 0 10.667-4.768 10.667-10.667S133.888 64 128 64zM448 64h-10.667a10.657 10.657 0 0 0-10.667 10.667 10.657 10.657 0 0 0 10.667 10.667H448a10.657 10.657 0 0 0 10.667-10.667A10.657 10.657 0 0 0 448 64zM458.667 106.667H53.333c-5.888 0-10.667 4.768-10.667 10.667s4.779 10.667 10.667 10.667h405.333a10.657 10.657 0 0 0 10.667-10.667 10.657 10.657 0 0 0-10.666-10.667zM352 224a10.657 10.657 0 0 0-10.667 10.667v106.667c0 5.899 4.768 10.667 10.667 10.667s10.667-4.768 10.667-10.667V234.667A10.657 10.657 0 0 0 352 224zM277.333 224h-32c-5.888 0-10.667 4.768-10.667 10.667v106.667c0 5.899 4.779 10.667 10.667 10.667S256 347.232 256 341.333v-32h21.333c23.477 0 32-19.136 32-32V256c0-23.477-19.136-32-32-32zM288 277.205c-.128 4.928-2.069 10.795-10.667 10.795H256v-42.667h21.205c4.928.128 10.795 2.07 10.795 10.667v21.205z" fill="#ff9f43" opacity="1" data-original="#000000" class=""></path><path d="M373.333 224h-42.667a10.657 10.657 0 0 0-10.667 10.667 10.657 10.657 0 0 0 10.667 10.667h42.667A10.657 10.657 0 0 0 384 234.667 10.657 10.657 0 0 0 373.333 224zM373.333 330.667h-42.667a10.657 10.657 0 0 0-10.667 10.667 10.657 10.657 0 0 0 10.667 10.667h42.667A10.657 10.657 0 0 0 384 341.334a10.657 10.657 0 0 0-10.667-10.667zM170.667 224C147.136 224 128 243.136 128 266.667v74.667c0 5.899 4.779 10.667 10.667 10.667s10.667-4.768 10.667-10.667v-74.667c0-11.765 9.568-21.333 21.333-21.333 11.765 0 21.333 9.568 21.333 21.333v74.667c0 5.899 4.779 10.667 10.667 10.667s10.667-4.768 10.667-10.667v-74.667C213.333 243.136 194.197 224 170.667 224z" fill="#ff9f43" opacity="1" data-original="#000000" class=""></path><path d="M202.667 288h-64c-5.888 0-10.667 4.768-10.667 10.667s4.779 10.667 10.667 10.667h64c5.888 0 10.667-4.768 10.667-10.667-.001-5.899-4.779-10.667-10.667-10.667z" fill="#ff9f43" opacity="1" data-original="#000000" class=""></path></g></svg>