<svg xmlns="http://www.w3.org/2000/svg" version="1.1" xmlns:xlink="http://www.w3.org/1999/xlink" width="128" height="128" x="0" y="0" viewBox="0 0 68 68" style="enable-background:new 0 0 512 512" xml:space="preserve" class=""><rect width="68" height="68" rx="13.6" ry="13.6" fill="#3c88d826" shape="rounded"></rect><g transform="matrix(0.7,0,0,0.7,10.199999427795412,10.200000000000003)"><path fill="#ffffff" d="M59.312 18.524v43.47a3.257 3.257 0 0 1-3.257 3.256H15.663a3.257 3.257 0 0 1-3.257-3.257V6.007a3.257 3.257 0 0 1 3.257-3.257h27.875z" opacity="1" data-original="#ffffff" class=""></path><path fill="#eaeaea50" d="M54.253 13.465V65.25h1.802a3.257 3.257 0 0 0 3.257-3.257v-43.47zM18.203 2.75h-2.54a3.257 3.257 0 0 0-3.257 3.257v55.986a3.257 3.257 0 0 0 3.257 3.257h2.54zM22.247 2.75h3.148v62.5h-3.148z" opacity="1" data-original="#eaeaea50" class=""></path><path fill="#6699ff" d="M59.312 18.524H46.794a3.257 3.257 0 0 1-3.256-3.257V2.75zM37.108 44.337V54.37a2.307 2.307 0 0 1-2.307 2.306H10.614a2 2 0 0 1-2-2V44.03a2 2 0 0 1 2-2h24.187a2.307 2.307 0 0 1 2.307 2.307z" opacity="1" data-original="#6699ff" class=""></path><path fill="#4e8cf2" d="M15.304 42.03v14.646h-4.69a2 2 0 0 1-2-2V44.031a2 2 0 0 1 2-2zM19.964 42.031h3.634v14.646h-3.634z" opacity="1" data-original="#4e8cf2" class=""></path><path fill="#ffffff" d="M18.579 51.063a.22.22 0 0 1 .159.066.22.22 0 0 1 .066.16v.592a.22.22 0 0 1-.066.158.216.216 0 0 1-.16.067h-3.66a.212.212 0 0 1-.159-.067.217.217 0 0 1-.067-.158v-5.389c0-.06.022-.113.067-.158a.213.213 0 0 1 .158-.066h3.595c.062 0 .114.021.158.066a.217.217 0 0 1 .068.158v.592a.216.216 0 0 1-.068.16.216.216 0 0 1-.158.066h-2.694v1.326h2.51c.062 0 .115.022.159.067a.213.213 0 0 1 .067.159v.591a.213.213 0 0 1-.067.159.213.213 0 0 1-.158.066h-2.511v1.385h2.76zM22.574 49.244l1.585-2.752.112-.132c.053-.062.135-.092.246-.092h.567c.062 0 .115.021.159.066a.217.217 0 0 1 .067.158v5.389c0 .06-.022.113-.067.158a.213.213 0 0 1-.159.067h-.675a.212.212 0 0 1-.159-.067.216.216 0 0 1-.066-.158v-3.262l-1.085 1.877a.677.677 0 0 1-.116.137.266.266 0 0 1-.193.071h-.433a.264.264 0 0 1-.192-.071.719.719 0 0 1-.117-.137l-1.084-1.877v3.262a.22.22 0 0 1-.066.158.216.216 0 0 1-.16.067h-.674a.216.216 0 0 1-.16-.067.22.22 0 0 1-.066-.158v-5.389a.22.22 0 0 1 .067-.158.216.216 0 0 1 .159-.066h.566c.112 0 .194.03.246.092l.114.132zM26.836 52.106a.216.216 0 0 1-.159-.067.22.22 0 0 1-.066-.158v-5.389a.22.22 0 0 1 .066-.158.216.216 0 0 1 .16-.066h2.46c.355 0 .653.053.892.162s.43.244.575.408.25.342.313.534c.064.193.096.371.096.538a1.365 1.365 0 0 1-.576 1.135c.173.116.331.281.476.496.144.214.217.485.217.813a1.81 1.81 0 0 1-.46 1.193c-.149.166-.336.3-.562.404s-.485.155-.78.155h-2.652zm3.211-4.154c0-.212-.067-.372-.2-.48-.134-.109-.345-.162-.634-.162h-1.476v1.284h1.476c.29 0 .5-.054.634-.162.133-.109.2-.269.2-.48zm-2.31 3.11h1.543c.305 0 .529-.064.67-.195a.663.663 0 0 0 .214-.513c0-.211-.074-.383-.221-.517s-.368-.2-.663-.2h-1.543z" opacity="1" data-original="#ffffff" class=""></path><path fill="#6699ff" d="M28.856 33.244c.1 0 .186.037.259.11.072.073.11.159.11.258v.97c0 .1-.038.186-.11.258a.352.352 0 0 1-.26.11H22.87a.352.352 0 0 1-.26-.11.352.352 0 0 1-.109-.259v-8.81c0-.1.037-.186.11-.26a.355.355 0 0 1 .26-.107h5.877c.1 0 .186.036.259.108.073.073.109.16.109.26v.967c0 .101-.036.187-.11.26a.355.355 0 0 1-.258.109h-4.405v2.169h4.105c.1 0 .186.036.259.108.072.073.109.16.109.26v.967c0 .101-.037.187-.11.26a.355.355 0 0 1-.258.109h-4.105v2.263h4.514zM35.388 30.272l2.59-4.5c.037-.046.099-.118.185-.22.086-.099.22-.148.402-.148h.928c.1 0 .186.036.259.108.073.073.109.16.109.26v8.81c0 .1-.036.186-.11.258a.353.353 0 0 1-.258.11h-1.105a.353.353 0 0 1-.26-.11.351.351 0 0 1-.108-.259V29.25l-1.773 3.069c-.046.072-.11.147-.19.224a.44.44 0 0 1-.315.116h-.709a.438.438 0 0 1-.313-.116 1.17 1.17 0 0 1-.191-.224l-1.773-3.069v5.332c0 .1-.037.187-.11.259a.353.353 0 0 1-.258.11h-1.105a.352.352 0 0 1-.26-.11.352.352 0 0 1-.109-.259v-8.81c0-.1.037-.186.11-.26a.355.355 0 0 1 .26-.108h.926c.182 0 .316.05.403.15.086.1.147.173.184.219zM42.357 34.95a.352.352 0 0 1-.26-.11.352.352 0 0 1-.109-.259v-8.81c0-.1.037-.186.11-.26a.355.355 0 0 1 .259-.108h4.023c.581 0 1.068.088 1.459.266s.704.4.94.668c.237.269.407.56.512.873.105.314.157.607.157.88a2.202 2.202 0 0 1-.375 1.274c-.104.15-.21.276-.314.375-.104.101-.188.17-.252.206.282.19.54.461.778.811.236.35.354.793.354 1.33a2.934 2.934 0 0 1-.75 1.95 2.768 2.768 0 0 1-.92.661c-.369.168-.794.252-1.276.252h-4.336zm5.25-6.792c0-.345-.109-.607-.327-.784-.219-.178-.564-.266-1.037-.266H43.83v2.1h2.413c.473 0 .818-.089 1.037-.265.218-.178.327-.44.327-.785zm-3.777 5.086h2.522c.5 0 .866-.106 1.098-.32.232-.213.348-.493.348-.839 0-.345-.12-.627-.362-.845-.24-.218-.602-.328-1.084-.328H43.83v2.332z" opacity="1" data-original="#6699ff" class=""></path><path d="M59.89 18.014c-.096-.1-15.633-15.648-15.824-15.817A.871.871 0 0 0 43.57 2H15.7a4.015 4.015 0 0 0-4.01 4.01v35.275h-1.04a2.753 2.753 0 0 0-2.75 2.75v10.646a2.753 2.753 0 0 0 2.75 2.75h1.04V62c0 2.206 1.799 4 4.01 4h40.39a4.01 4.01 0 0 0 4.01-4V18.53a.845.845 0 0 0-.21-.516zM44.322 4.565l13.214 13.213H46.83a2.51 2.51 0 0 1-2.507-2.506V4.565zM9.4 54.681V44.035c0-.69.56-1.25 1.25-1.25h24.187c.859 0 1.557.698 1.557 1.557v10.033c0 .858-.698 1.556-1.557 1.556H10.65c-.69 0-1.25-.56-1.25-1.25zM58.6 62c0 1.378-1.126 2.5-2.51 2.5H15.7a2.508 2.508 0 0 1-2.51-2.5v-4.569h21.647a3.06 3.06 0 0 0 3.057-3.056V44.342a3.06 3.06 0 0 0-3.057-3.057H13.19V6.01A2.513 2.513 0 0 1 15.7 3.5h27.123v11.772a4.011 4.011 0 0 0 4.007 4.006H58.6V62z" fill="#000000" opacity="1" data-original="#000000" class=""></path></g></svg>