<svg xmlns="http://www.w3.org/2000/svg" version="1.1" xmlns:xlink="http://www.w3.org/1999/xlink" width="128" height="128" x="0" y="0" viewBox="0 0 24 24" style="enable-background:new 0 0 512 512" xml:space="preserve" class=""><rect width="24" height="24" rx="4.8" ry="4.8" fill="#00bcd426" shape="rounded"></rect><g transform="matrix(0.7,0,0,0.7,3.5999010086059577,3.600099205970764)"><g fill="#000" fill-rule="evenodd" clip-rule="evenodd"><path d="M4 4.75c-.69 0-1.25.56-1.25 1.25v14c0 .69.56 1.25 1.25 1.25h2.5a.75.75 0 0 1 0 1.5H4A2.75 2.75 0 0 1 1.25 20V6A2.75 2.75 0 0 1 4 3.25h10.5a.75.75 0 0 1 0 1.5zm16 4a.75.75 0 0 1 .75.75V20A2.75 2.75 0 0 1 18 22.75h-7.5a.75.75 0 0 1 0-1.5H18c.69 0 1.25-.56 1.25-1.25V9.5a.75.75 0 0 1 .75-.75z" fill="#00bcd4" opacity="1" data-original="#000000" class=""></path><path d="M19.47 1.47a.75.75 0 0 1 1.06 0l2 2a.75.75 0 0 1 0 1.06l-8 8a.75.75 0 0 1-.293.182l-3 1a.75.75 0 0 1-.949-.95l1-3a.75.75 0 0 1 .182-.292zm-6.814 8.935-.47 1.41 1.409-.47L20.939 4 20 3.06z" fill="#00bcd4" opacity="1" data-original="#000000" class=""></path></g></g></svg>