<svg xmlns="http://www.w3.org/2000/svg" version="1.1" xmlns:xlink="http://www.w3.org/1999/xlink" width="128" height="128" x="0" y="0" viewBox="0 0 64 64" style="enable-background:new 0 0 512 512" xml:space="preserve" class=""><rect width="64" height="64" rx="12.8" ry="12.8" fill="#ff383826" shape="rounded"></rect><g transform="matrix(0.7,0,0,0.7,9.60093698501587,9.600993490219118)"><path d="M31.998 8.956c-7.092-6.374-18.052-6.15-24.874.671-7.053 7.053-7.053 18.528 0 25.581l24.167 24.167a.997.997 0 0 0 1.414 0l24.167-24.167c3.417-3.417 5.3-7.96 5.3-12.791s-1.882-9.373-5.3-12.791c-6.82-6.821-17.78-7.043-24.874-.67zM58.522 29.49h-11.46l-2.128-7.848a1 1 0 0 0-1.928-.009l-4.294 15.286-3.929-12.225a1 1 0 0 0-1.791-.239l-3.276 5.035H19.097a1 1 0 0 0 0 2h11.161a.999.999 0 0 0 .838-.455l2.425-3.727 4.302 13.385a1 1 0 0 0 .952.694h.019a1 1 0 0 0 .944-.729l4.213-14.996 1.38 5.09a1 1 0 0 0 .965.738h11.067a16.305 16.305 0 0 1-1.906 2.304L31.998 57.253l-23.46-23.46A15.98 15.98 0 0 1 3.83 22.417c0-4.3 1.672-8.34 4.708-11.376 3.137-3.137 7.256-4.705 11.376-4.705s8.24 1.568 11.376 4.704a.999.999 0 0 0 1.414 0c6.274-6.272 16.479-6.272 22.752 0a15.987 15.987 0 0 1 4.714 11.376c0 2.495-.581 4.896-1.649 7.073z" fill="#ff3838" opacity="1" data-original="#000000" class=""></path><path d="M19.097 9.774c-.529 0-1.059.033-1.576.097a1 1 0 0 0 .247 1.984c.436-.054.883-.082 1.329-.082a1 1 0 0 0 0-2zM13.272 11.198a12.58 12.58 0 0 0-3.051 2.248c-2.368 2.367-3.672 5.519-3.672 8.875s1.304 6.507 3.672 8.875a.997.997 0 0 0 1.414 0 .999.999 0 0 0 0-1.414c-1.99-1.99-3.086-4.64-3.086-7.461s1.096-5.472 3.087-7.461a10.53 10.53 0 0 1 2.565-1.891 1 1 0 1 0-.929-1.771z" fill="#ff3838" opacity="1" data-original="#000000" class=""></path></g></svg>