<svg xmlns="http://www.w3.org/2000/svg" version="1.1" xmlns:xlink="http://www.w3.org/1999/xlink" width="128" height="128" x="0" y="0" viewBox="0 0 512 512" style="enable-background:new 0 0 512 512" xml:space="preserve" class=""><rect width="512" height="512" rx="102.4" ry="102.4" fill="#ea580c40" shape="rounded"></rect><g transform="matrix(0.7,0,0,0.7,76.79999713897706,76.80001373291017)"><path d="M181.4 310.16H63.1c-12.91 0-23.42-9.42-23.42-21V63.58c0-11.58 10.51-21 23.42-21h252.09c12.91 0 23.42 9.42 23.42 21v146.26a8 8 0 1 1-16 0V63.58c0-2.37-3.05-5-7.42-5H63.1c-4.37 0-7.42 2.63-7.42 5v225.58c0 2.37 3 5 7.42 5h118.3a8 8 0 1 1 0 16z" fill="#ea580c" opacity="1" data-original="#000000" class=""></path><path d="M330.6 120.32H47.69a8 8 0 0 1 0-16H330.6a8 8 0 0 1 0 16zM303.56 89.45H233a8 8 0 0 1 0-16h70.55a8 8 0 0 1 0 16zM100.78 89.45h-26a8 8 0 0 1 0-16h26.05a8 8 0 0 1 0 16zM147.31 89.45h-26.06a8 8 0 0 1 0-16h26.06a8 8 0 0 1 0 16zM193.84 89.45h-26.06a8 8 0 0 1 0-16h26.06a8 8 0 0 1 0 16zM292.81 157.8H85.48a8 8 0 0 1 0-16h207.33a8 8 0 0 1 0 16zM150.74 196.09H85.48a8 8 0 1 1 0-16h65.26a8 8 0 0 1 0 16zM142.38 234.39h-56.9a8 8 0 0 1 0-16h56.9a8 8 0 0 1 0 16zM142.38 272.69h-56.9a8 8 0 0 1 0-16h56.9a8 8 0 0 1 0 16zM435.08 181.91a8 8 0 0 1-6.33-3.1l-45.92-59.33a8 8 0 0 1 6.33-12.9h24V86.36h-54.5a8 8 0 0 1-8-8V50.58a8 8 0 0 1 8-8H449a8 8 0 0 1 8 8v56h24a8 8 0 0 1 6.33 12.9l-45.93 59.33a8 8 0 0 1-6.32 3.1zm-29.62-59.33 29.62 38.26 29.61-38.26H449a8 8 0 0 1-8-8v-56h-74.34v11.78h54.53a8 8 0 0 1 8 8v36.22a8 8 0 0 1-8 8zM153.34 469.42H63a8 8 0 0 1-8-8v-56H31a8 8 0 0 1-6.33-12.9l45.93-59.33a8 8 0 0 1 12.65 0l45.92 59.33a8 8 0 0 1-6.33 12.9h-24v20.22h54.53a8 8 0 0 1 8 8v27.78a8 8 0 0 1-8.03 8zm-82.34-16h74.31v-11.78h-54.5a8 8 0 0 1-8-8v-36.22a8 8 0 0 1 8-8h15.73l-29.62-38.26-29.61 38.26H63a8 8 0 0 1 8 8zM279 248.71h-70.56a8 8 0 0 1 0-16H279a8 8 0 0 1 0 16zM437.28 248.71h-26.06a8 8 0 0 1 0-16h26.06a8 8 0 0 1 0 16zM390.75 248.71h-26.06a8 8 0 0 1 0-16h26.06a8 8 0 0 1 0 16zM344.22 248.71h-26.05a8 8 0 0 1 0-16h26.05a8 8 0 0 1 0 16z" fill="#ea580c" opacity="1" data-original="#000000" class=""></path><path d="M448.9 469.42H196.82c-12.91 0-23.42-9.42-23.42-21V222.83c0-11.58 10.51-21 23.42-21H448.9c12.91 0 23.42 9.41 23.42 21v225.58c0 11.59-10.51 21.01-23.42 21.01zM196.82 217.84c-4.37 0-7.42 2.63-7.42 5v225.57c0 2.37 3 5 7.42 5H448.9c4.37 0 7.42-2.64 7.42-5V222.83c0-2.36-3.05-5-7.42-5z" fill="#ea580c" opacity="1" data-original="#000000" class=""></path><path d="M464.31 279.58h-282.9a8 8 0 0 1 0-16h282.9a8 8 0 0 1 0 16zM426.52 393.65H219.2a8 8 0 1 1 0-16h207.32a8 8 0 0 1 0 16zM426.52 431.94H219.2a8 8 0 0 1 0-16h207.32a8 8 0 0 1 0 16zM426.52 355.35H219.2a8 8 0 0 1-8-8v-38.3a8 8 0 0 1 8-8h207.32a8 8 0 0 1 8 8v38.3a8 8 0 0 1-8 8zm-199.32-16h191.32v-22.3H227.2z" fill="#ea580c" opacity="1" data-original="#000000" class=""></path></g></svg>