<svg xmlns="http://www.w3.org/2000/svg" version="1.1" xmlns:xlink="http://www.w3.org/1999/xlink" width="128" height="128" x="0" y="0" viewBox="0 0 512 512" style="enable-background:new 0 0 512 512" xml:space="preserve" class=""><rect width="512" height="512" rx="102.4" ry="102.4" fill="#00bcd426" shape="rounded"></rect><g transform="matrix(0.7,0,0,0.7,76.80000000000001,76.79995713729588)"><path d="M160 288c17.673 0 32 14.327 32 32h32c0-35.346-28.654-64-64-64-35.346 0-64 28.654-64 64v32c0 35.346 28.654 64 64 64 35.346 0 64-28.654 64-64h-32c0 17.673-14.327 32-32 32s-32-14.327-32-32v-32c0-17.673 14.327-32 32-32z" fill="#00bcd4" opacity="1" data-original="#000000" class=""></path><path d="M32 464V48c0-8.837 7.163-16 16-16h240v64c0 17.673 14.327 32 32 32h64v48h32v-64a15.997 15.997 0 0 0-4.64-11.36l-96-96A16.001 16.001 0 0 0 304 0H48C21.49 0 0 21.491 0 48v416c0 26.51 21.49 48 48 48h112v-32H48c-8.836 0-16-7.163-16-16zM464 320h-32c-8.837 0-16-7.163-16-16s7.163-16 16-16h32c8.837 0 16 7.163 16 16h32c0-26.51-21.49-48-48-48h-32c-26.51 0-48 21.49-48 48s21.49 48 48 48h32c8.837 0 16 7.163 16 16s-7.163 16-16 16h-32c-8.837 0-16-7.163-16-16h-32c0 26.51 21.49 48 48 48h32c26.51 0 48-21.49 48-48 0-26.509-21.49-48-48-48z" fill="#00bcd4" opacity="1" data-original="#000000" class=""></path><path d="M288 288h32c8.837 0 16 7.163 16 16h32c0-26.51-21.49-48-48-48h-32c-26.51 0-48 21.49-48 48s21.49 48 48 48h32c8.837 0 16 7.163 16 16s-7.163 16-16 16h-32c-8.837 0-16-7.163-16-16h-32c0 26.51 21.49 48 48 48h32c26.51 0 48-21.49 48-48s-21.49-48-48-48h-32c-8.837 0-16-7.163-16-16s7.164-16 16-16z" fill="#00bcd4" opacity="1" data-original="#000000" class=""></path></g></svg>