<svg xmlns="http://www.w3.org/2000/svg" version="1.1" xmlns:xlink="http://www.w3.org/1999/xlink" width="128" height="128" x="0" y="0" viewBox="0 0 24 24" style="enable-background:new 0 0 512 512" xml:space="preserve" class=""><rect width="24" height="24" rx="4.8" ry="4.8" fill="#eab30850" shape="rounded"></rect><g transform="matrix(0.7,0,0,0.7,3.6000000000000014,3.6000000000000014)"><path fill="#eab308" fill-rule="evenodd" d="M4 5a1 1 0 0 1 1-1c8.284 0 15 6.716 15 15a1 1 0 0 1-2 0c0-7.18-5.82-13-13-13a1 1 0 0 1-1-1zm0 5a1 1 0 0 1 1-1c5.523 0 10 4.477 10 10a1 1 0 0 1-2 0 8 8 0 0 0-8-8 1 1 0 0 1-1-1zm2.5 10a2.5 2.5 0 1 0 0-5 2.5 2.5 0 0 0 0 5z" clip-rule="evenodd" opacity="1" data-original="#000000"></path></g></svg>