<svg xmlns="http://www.w3.org/2000/svg" version="1.1" xmlns:xlink="http://www.w3.org/1999/xlink" width="128" height="128" x="0" y="0" viewBox="0 0 512 512" style="enable-background:new 0 0 512 512" xml:space="preserve" class=""><rect width="512" height="512" rx="102.4" ry="102.4" fill="#ff005726" shape="rounded" transform="matrix(1,0,0,1,0,0)"></rect><g transform="matrix(0.7100000000000001,0,0,0.7100000000000001,74.23999999999998,74.23999999999998)"><path d="M256 0C114.615 0 0 114.615 0 256s114.615 256 256 256 256-114.615 256-256S397.385 0 256 0zm0 480C132.288 480 32 379.712 32 256S132.288 32 256 32s224 100.288 224 224-100.288 224-224 224z" fill="#ff4081" opacity="1" data-original="#000000" class=""></path><circle cx="176" cy="176" r="32" fill="#ff4081" opacity="1" data-original="#000000" class=""></circle><circle cx="336" cy="176" r="32" fill="#ff4081" opacity="1" data-original="#000000" class=""></circle><path d="M368 256c0 61.856-50.144 112-112 112s-112-50.144-112-112h-32c0 79.529 64.471 144 144 144s144-64.471 144-144h-32z" fill="#ff4081" opacity="1" data-original="#000000" class=""></path></g></svg>