<svg xmlns="http://www.w3.org/2000/svg" version="1.1" xmlns:xlink="http://www.w3.org/1999/xlink" width="20" height="20" x="0" y="0" viewBox="0 0 16 16" style="enable-background:new 0 0 512 512" xml:space="preserve" class=""><g><defs><path id="a" d="M.902.195a.5.5 0 1 1-.707.707.5.5 0 0 1 .707-.707" fill="#ffffff" opacity="1" data-original="#000000" class=""></path></defs><use xlink:href="#a" transform="translate(9.967 12.951)"></use><use xlink:href="#a" transform="translate(7.967 14.951)"></use><path d="M12.723 14.293a1 1 0 1 1-1.414 1.414 1 1 0 0 1 1.414-1.414M14.154 0c-.554 0-1.076.244-1.43.67L9.56 4.465c.233.107.458.233.67.384a4.222 4.222 0 0 1 1.333 1.596l3.782-3.153c.426-.354.67-.876.67-1.43A1.864 1.864 0 0 0 14.154 0zM9.65 5.664a3.398 3.398 0 0 0-4.223.24C4.7 6.56 2.484 8.56.41 9.012l-.425.092S.016 10.5.439 11.13c.829-.093 1.5-.264 1.73-.494-.51.602-.897 1.038-1.197 1.363.247.33.55.644.892.946 1.224-.521 2.316-1.422 2.673-1.778a68.29 68.29 0 0 1-1.61 2.559 25.068 25.068 0 0 0 2.296-1.493c-.291.291-.674 1.206-.983 2.251.345.167 1.314.515 1.314.515 1.488-.113 4.072-3.618 4.942-4.959a3.219 3.219 0 0 0-.846-4.376z" fill="#ffffff" opacity="1" data-original="#000000" class=""></path></g></svg>